<?xml version="1.0" encoding="UTF-8" standalone="no"?>
<svg
   xmlns:dc="http://purl.org/dc/elements/1.1/"
   xmlns:cc="http://creativecommons.org/ns#"
   xmlns:rdf="http://www.w3.org/1999/02/22-rdf-syntax-ns#"
   xmlns:svg="http://www.w3.org/2000/svg"
   xmlns="http://www.w3.org/2000/svg"
   viewBox="0 0 572.81476 403.44171"
   version="1.1"
   id="svg4"
   width="572.81476"
   height="403.44171">
  <metadata
     id="metadata10">
    <rdf:RDF>
      <cc:Work
         rdf:about="">
        <dc:format>image/svg+xml</dc:format>
        <dc:type
           rdf:resource="http://purl.org/dc/dcmitype/StillImage" />
        <dc:title></dc:title>
      </cc:Work>
    </rdf:RDF>
  </metadata>
  <defs
     id="defs8" />
  <!--! Font Awesome Pro 6.3.0 by @fontawesome - https://fontawesome.com License - https://fontawesome.com/license (Commercial License) Copyright 2023 Fonticons, Inc. -->
  <path
     d="m 52.543703,266.52474 c -7.769724,10.7945 -5.336251,25.72964 5.458255,33.49936 10.79451,7.76973 25.729643,5.33626 33.499366,-5.45825 L 189.6452,158.21418 c 20.6219,-28.65009 60.68156,-35.17725 89.33165,-14.55535 28.65007,20.6219 35.17724,60.68155 14.55534,89.33164 l -60.75574,84.40818 c -7.76972,10.7945 -5.33625,25.72963 5.45826,33.49936 10.79451,7.76972 25.72965,5.33626 33.49937,-5.45825 l 88.79684,-123.36581 c 2.62885,-3.65227 6.25439,-6.46394 10.34104,-8.20445 l 69.85282,-28.5759 c 7.66045,-3.11089 16.42192,-2.10257 23.15833,2.7462 l 19.47881,14.02056 c 10.79451,7.76972 13.22798,22.70485 5.45826,33.49935 -7.76973,10.79451 -22.70486,13.22799 -33.49936,5.45827 l -8.68431,-6.25084 -51.17888,20.94808 -84.76594,117.76564 c -23.25075,32.30237 -68.19573,39.62553 -100.49809,16.37477 -32.30236,-23.25075 -39.62552,-68.19573 -16.37477,-100.4981 l 60.75574,-84.40817 c 5.14087,-7.14223 3.50339,-17.19204 -3.63884,-22.33291 -7.14223,-5.14087 -17.19204,-3.5034 -22.33291,3.63883 L 130.45894,322.60696 C 107.20819,354.90932 62.26321,362.23248 29.96085,338.98172 -2.3415111,315.73097 -9.6646701,270.78599 13.586084,238.48363 L 136.03226,68.368693 C 163.31392,30.466173 206.58488,7.1527758 253.27705,5.2763878 L 380.3204,0.12300384 C 414.20014,-1.2419262 447.64327,8.7838958 475.23825,28.646354 l 87.57349,63.034069 c 10.7945,7.76973 13.22797,22.704857 5.45825,33.499367 -7.76973,10.79451 -22.70486,13.22798 -33.49936,5.45825 L 447.19714,67.603973 c -18.82952,-13.5532 -41.72874,-20.42528 -64.93525,-19.50983 l -127.04335,5.15339 c -31.96129,1.26727 -61.53459,17.19052 -80.22866,43.16227 z"
     id="path2" />
</svg>
