<?xml version="1.0" encoding="UTF-8" standalone="no"?>
<svg
   xmlns:dc="http://purl.org/dc/elements/1.1/"
   xmlns:cc="http://creativecommons.org/ns#"
   xmlns:rdf="http://www.w3.org/1999/02/22-rdf-syntax-ns#"
   xmlns:svg="http://www.w3.org/2000/svg"
   xmlns="http://www.w3.org/2000/svg"
   width="7.9385457mm"
   height="6.6684065mm"
   viewBox="0 0 7.9385457 6.6684065"
   version="1.1"
   id="svg8">
  <defs
     id="defs2" />
  <metadata
     id="metadata5">
    <rdf:RDF>
      <cc:Work
         rdf:about="">
        <dc:format>image/svg+xml</dc:format>
        <dc:type
           rdf:resource="http://purl.org/dc/dcmitype/StillImage" />
        <dc:title></dc:title>
      </cc:Work>
    </rdf:RDF>
  </metadata>
  <g
     id="layer1"
     transform="translate(-137.39382,-135.76104)"
     style="display:none">
    <path
       d="m 145.29692,139.33245 -1.98437,-3.43959 a 0.26458333,0.26458333 0 0 0 -0.45773,0 l -1.32292,2.29923 a 2.1563542,2.1563542 0 0 0 -0.42598,0 v -1.32821 a 0.26458333,0.26458333 0 0 0 -0.26458,-0.26458 h -3.18294 a 0.26458333,0.26458333 0 0 0 -0.26458,0.26458 v 3.175 a 0.26458333,0.26458333 0 0 0 0.26458,0.26459 h 1.5875 a 2.1166667,2.1166667 0 1 0 4.15131,-0.57415 h 1.66953 a 0.26458333,0.26458333 0 0 0 0.23018,-0.39687 z m -7.37393,0.44185 v -2.64583 h 2.64583 v 1.21179 0 a 2.1166667,2.1166667 0 0 0 -1.24883,1.43404 z m 3.43958,2.11667 a 1.5875,1.5875 0 0 1 -1.5875,-1.5875 1.222375,1.222375 0 0 1 0.0185,-0.22754 1.5875,1.5875 0 0 1 1.11654,-1.29382 1.5663333,1.5663333 0 0 1 0.45244,-0.0661 1.3996458,1.3996458 0 0 1 0.26458,0.0238 1.5875,1.5875 0 0 1 -0.26458,3.15119 z m 1.8071,-2.69082 v 0 a 2.1166667,2.1166667 0 0 0 -1.09008,-0.8837 v 0 l 1.00277,-1.75948 1.52665,2.64583 z"
       id="path835"
       style="stroke-width:0.264583" />
  </g>
  <g
     id="layer2">
    <path
       style="fill:none;stroke:#000000;stroke-width:0.465;stroke-linecap:round;stroke-linejoin:round;stroke-miterlimit:4;stroke-dasharray:none;stroke-opacity:1"
       d="M 0.33072916,6.331101 7.6067707,0.33072916"
       id="path852" />
  </g>
</svg>
